<?xml version="1.0" encoding="iso-8859-1"?>
<!-- Generator: Adobe Illustrator 19.0.0, SVG Export Plug-In . SVG Version: 6.00 Build 0)  -->
<svg version="1.1" id="Layer_1" xmlns="http://www.w3.org/2000/svg" xmlns:xlink="http://www.w3.org/1999/xlink" x="0px" y="0px"
	 viewBox="0 0 512 512" style="enable-background:new 0 0 512 512;" xml:space="preserve">
<path style="fill:#565659;" d="M335.38,321.186c-8.083-3.091-17.145,0.962-20.234,9.049c-1.241,3.248-1.312,6.647-0.451,9.758
	l-116.444-4.187c0.017-1.889-0.296-3.811-1.006-5.682c-3.07-8.093-12.117-12.167-20.213-9.097
	c-48.311,18.321-77.153,51.439-77.153,88.591c0,28.798,17.251,55.311,48.575,74.649C177.421,502.151,215.615,512,255.999,512
	c40.382,0,78.576-9.849,107.545-27.733c31.325-19.339,48.577-45.85,48.577-74.649C412.122,372.598,383.433,339.54,335.38,321.186z"
	/>
<path style="fill:#434349;" d="M335.38,321.186c-8.083-3.091-17.145,0.962-20.234,9.049c-1.241,3.248-1.312,6.647-0.451,9.758
	l-58.692-2.111V512c40.381,0,78.574-9.849,107.543-27.733c31.325-19.339,48.577-45.85,48.577-74.649
	C412.122,372.598,383.433,339.54,335.38,321.186z"/>
<path style="fill:#FF0536;" d="M256.001,420.397c-3.742,0-7.485-1.333-10.462-4.002c-2.289-2.052-56.539-51.05-96.626-119.421
	c-55.028-93.855-55.906-178.22-2.539-243.975C173.708,19.317,213.666,0,256.001,0s82.294,19.317,109.628,52.998
	c53.361,65.755,52.482,150.12-2.545,243.975c-40.083,68.372-94.33,117.368-96.621,119.421
	C263.486,419.064,259.743,420.397,256.001,420.397z"/>
<path style="fill:#E70020;" d="M365.629,52.998C338.296,19.317,298.336,0,256.001,0v420.397c3.742,0,7.485-1.333,10.462-4.002
	c2.289-2.053,56.536-51.05,96.621-119.421C418.11,203.12,418.989,118.754,365.629,52.998z"/>
<path style="fill:#A2D8F4;" d="M308.757,124.064c-14.082-14.073-32.82-21.823-52.764-21.823c-19.945,0-38.677,7.753-52.74,21.825
	c-14.077,14.074-21.829,32.81-21.829,52.758c0,19.949,7.752,38.685,21.828,52.76c14.071,14.072,32.801,21.822,52.744,21.822
	c19.944,0,38.683-7.751,52.765-21.829C337.841,200.488,337.841,153.157,308.757,124.064z"/>
<path style="fill:#4BB9EC;" d="M308.757,124.064c-14.08-14.071-32.815-21.821-52.756-21.823v149.164
	c19.942-0.001,38.679-7.752,52.76-21.829C337.841,200.488,337.841,153.157,308.757,124.064z"/>
<g>
</g>
<g>
</g>
<g>
</g>
<g>
</g>
<g>
</g>
<g>
</g>
<g>
</g>
<g>
</g>
<g>
</g>
<g>
</g>
<g>
</g>
<g>
</g>
<g>
</g>
<g>
</g>
<g>
</g>
</svg>
