<svg id="Layer_1" enable-background="new 0 0 128 128" viewBox="0 0 128 128" xmlns="http://www.w3.org/2000/svg"><g><g><path d="m58.6 75.3-3.4-3.3-13.5 13.6-.8-26.8h-3.1l-.5 20.3-10.3-10-3.3 3.5 13.4 12.9-1.2 36h7l-1-29.3z" fill="#301d16"/><path d="m75.2 53.1c0-6.8-5.5-12.3-12.3-12.3-.3 0-.6 0-.8 0-2.8-6.3-10.2-9.1-16.5-6.3-3.8-5-10.9-6-15.9-2.3-1.1.8-2 1.8-2.8 3-5.2-1-10.2 2.4-11.2 7.6-.1.6-.2 1.2-.2 1.8-5 0-9.1 4-9.1 9 0 2.3.8 4.4 2.4 6.1-.8 6.2 3.7 11.8 9.9 12.6.5.1.9.1 1.4.1 4.8 0 9.1-3 10.7-7.5 3 2.4 7 3 10.6 1.8 2.2 5.9 8.7 8.8 14.6 6.7.1 0 .1-.1.2-.1 3.9 2.2 8.9.9 11.1-3 1.1-1.9 1.4-4.1.8-6.2 4.3-2 7.1-6.3 7.1-11z" fill="#a2ba44"/><path d="m69.4 75.3 3.4-3.3 13.5 13.6.8-26.8h3.1l.5 20.3 10.3-10 3.3 3.5-13.4 12.9 1.2 36h-7l1-29.3z" fill="#301d16"/><path d="m52.8 53.1c0-6.8 5.5-12.3 12.3-12.3h.8c2.8-6.3 10.2-9.1 16.5-6.3 3.8-5 10.9-6 15.9-2.3 1.1.8 2 1.8 2.8 3 5.2-1 10.2 2.4 11.2 7.6.1.6.2 1.2.2 1.8 5 0 9.1 4 9.1 9 0 2.3-.8 4.4-2.4 6.1.8 6.2-3.7 11.8-9.9 12.6-.5.1-.9.1-1.4.1-4.8 0-9.1-3-10.7-7.5-3 2.4-7 3-10.6 1.8-2.2 5.9-8.7 8.8-14.6 6.7-.1 0-.1-.1-.2-.1-3.9 2.2-8.9.9-11.1-3-1.1-1.9-1.4-4.1-.8-6.2-4.3-2-7.1-6.3-7.1-11z" fill="#a2ba44"/><path d="m40.7 121.5h-34.2c0-3.1 1.7-6 4.4-7.5.6-3.2 3.5-5.5 6.7-5.5.9 0 1.8.2 2.7.5 2.8-2 6.8-1.4 8.8 1.5.4-.1.8-.1 1.2-.1 2.5 0 4.8 1.4 6 3.6 2.8 1.6 4.4 4.4 4.4 7.5z" fill="#c7e554"/><path d="m121.5 121.5h-34.2c0-3.1 1.7-6 4.4-7.5.6-3.2 3.5-5.5 6.7-5.5.9 0 1.8.2 2.7.5 2.8-2 6.8-1.4 8.8 1.5.4-.1.8-.1 1.2-.1 2.5 0 4.8 1.4 6 3.6 2.7 1.5 4.4 4.4 4.4 7.5z" fill="#c7e554"/><path d="m88.1 63.4-4.2-4.2-17 17.2-1-33.7h-3.8l-.8 25.4-12.9-12.4-4.2 4.3 16.9 16.3-1.5 45.2h8.8l-1.2-36.8z" fill="#5b362a"/><path d="m109 35.5c0-8.5-6.9-15.4-15.4-15.4-.4 0-.7 0-1.1.1-3.5-8-12.8-11.5-20.7-8-4.7-6.3-13.6-7.6-19.9-2.8-1.4 1-2.5 2.3-3.5 3.7-6.5-1.3-12.9 3-14.1 9.6-.1.8-.2 1.5-.2 2.3-6.3 0-11.4 5.1-11.4 11.4 0 2.8 1.1 5.6 3 7.7-.9 7.8 4.7 14.9 12.5 15.8 6.6.8 12.9-3.1 15.1-9.3 3.8 3 8.8 3.8 13.3 2.3 2.7 7.4 10.9 11.1 18.3 8.4.1 0 .2-.1.3-.1 4.9 2.8 11.2 1.1 14-3.8 1.4-2.4 1.7-5.2 1-7.8 5.3-2.7 8.8-8.1 8.8-14.1z" fill="#c7e554"/></g><path d="m118.4 112.8c-1.6-2.7-4.6-4.2-7.7-4.1-2.5-2.7-6.6-3.4-9.8-1.6-2.5-.8-5.3-.3-7.5 1.2l-.7-22.1 12.6-12.2c8.8 1.9 16.1-4.8 15.6-13.6 3.7-4.7 2.9-11.5-1.8-15.2-1.5-1.2-3.2-1.9-5-2.2-.4-2.5-1.5-4.8-3.4-6.6 0-.3 0-.7 0-1 0-9.5-7.7-17.1-17.2-17.2-1.1-2.1-2.6-3.9-4.5-5.4-.8-.6-1.9-.5-2.5.3s-.5 1.9.3 2.5c1.7 1.4 3.1 3.2 4 5.2.2.7.9 1.1 1.9 1h.8c7.5 0 13.7 6.1 13.7 13.6 0 5.3-3.1 10.1-7.9 12.4-.8.4-1.2 1.2-.9 2 1.2 4.5-1.4 9.2-6 10.4-2.2.6-4.5.3-6.4-.8-.5-.3-1-.3-1.5-.1-1.1.4-2.5.9-4.6.9-5.2 0-9.9-3.3-11.7-8.1-.3-.9-1.3-1.3-2.2-1-4 1.4-8.4.6-11.7-2-.8-.6-1.9-.5-2.5.3-.1.1-.2.3-.3.5-2.3 6.5-9.5 9.9-16 7.6-5.5-2-9-7.5-8.2-13.3.1-.5-.1-1-.4-1.4-3.6-3.9-3.3-10 .6-13.6 1.8-1.6 4.1-2.5 6.5-2.5 1 0 1.7-.8 1.8-1.8 0-5.7 4.8-11.7 12.3-10.2.7.1 1.4-.2 1.8-.8 3.7-5.8 11.4-7.5 17.3-3.8 1.3.8 2.4 1.8 3.3 3 .5.6 1.4.9 2.1.5 1.8-.8 3.7-1.2 5.7-1.2 1 0 1.8-.8 1.8-1.8s-.8-1.8-1.8-1.8c-2 0-4 .3-5.8 1-5.9-6.6-16-7.2-22.6-1.3-.8.7-1.5 1.5-2.2 2.4-7.8-.9-14.3 5.2-15.2 12.1-5.7.7-10.3 5.1-11.3 10.8-3.9 1.5-6.6 4.9-7.2 9-6 1.2-10 6.7-9.1 12.6.3 1.8 1 3.6 2.2 5-.1.8.1 2.4.2 3.2.2.9 1.1 1.6 2 1.4s1.6-1.1 1.4-2c-.2-1-.2-1.9-.1-2.9.1-.5-.1-1-.4-1.4-2.7-3-2.5-7.6.5-10.3 1.3-1.2 3.1-1.9 4.9-1.9 1 0 1.8-.8 1.8-1.8 0-2.7 1.4-5.2 3.7-6.7.3 2.4 1.3 4.7 2.8 6.6v1.1c0 8.8 7.2 16 16 16 1.1 0 2.2-.1 3.3-.4l11.2 10.8c-.7.2-1.5.3-2.3.3-4 0-7.6-2.5-9-6.2-.3-.9-1.3-1.3-2.2-1-3.1 1-6.4.5-9-1.5-.8-.6-1.9-.5-2.5.3-.1.1-.2.3-.3.5-1.4 3.8-5 6.3-9 6.4-2.1 0-4.2-.7-5.9-2-.8-.6-1.9-.5-2.5.3s-.5 1.9.3 2.5c3 2.3 6.9 3.2 10.6 2.5l12.6 12.2-.8 23.5c-1.4-.8-3-1.1-4.5-1.1-1.5-1.7-3.7-2.6-6-2.6-1.4 0-2.7.3-3.9 1-4.5-1.4-9.3 1.2-10.7 5.8-2.9 1.9-4.7 5.2-4.7 8.7 0 1 .8 1.7 1.8 1.8h115c1 0 1.8-.8 1.8-1.8 0-3.7-1.8-7-4.8-8.9zm-28.7-28.5c-.4.3-.5.8-.5 1.3l.9 27.3c-1.2.8-2.3 1.9-3.1 3.2l.8-23.9c0-.5-.2-.9-.5-1.3l-12-12.1.9-.9 8.8 8.9c.7.7 1.8.7 2.5 0 .3-.3.5-.7.5-1.2l.5-16.6h.2l.3 10c0 1 .8 1.7 1.8 1.7.4 0 .9-.2 1.2-.5l8.6-8.3c.4.2.7.5 1.1.7zm-20.8 1.1 4-4 11.4 11.5-.9 26.9h-13.3zm16-13.1-.3 9.1-5.8-5.9c2.3-.4 4.4-1.5 6.1-3.2zm7.3-3.3c1.5-.2 2.9-.7 4.2-1.4.4.7.9 1.4 1.5 2.1l-5.5 5.3zm-.7-4.9c6.6-.7 11.4-6.7 10.6-13.3 0-.1 0-.3-.1-.4 3.6-2.1 6.3-5.4 7.7-9.3.6 1.1.9 2.4.9 3.6 0 1 .8 1.8 1.8 1.8 4 0 7.3 3.3 7.3 7.3 0 1.8-.7 3.6-1.9 4.9-.3.4-.5.9-.4 1.4 0 .4.1.7.1 1.1 0 5.3-4.3 9.6-9.6 9.6-2.3 0-4.6-.8-6.3-2.4-1.2-1.1-2.2-2.4-2.7-4-.3-.9-1.3-1.4-2.2-1.1-.2.1-.3.2-.5.3-1.6 1.3-5 2.6-7.6 1.9l1.4-1.4zm-14.3-.6-8.6 8.7-.4-13.6c2.3 2.6 5.5 4.3 9 4.9zm-23.2-10.4c1.8 1.1 3.9 1.7 6 2l-.3 9-8-7.7c.9-1 1.7-2.1 2.3-3.3zm-4.9 22.5-5.8 5.9-.3-9.1c1.8 1.5 3.9 2.7 6.1 3.2zm-17.6-8c1.3.7 2.8 1.2 4.2 1.4l-.2 6-5.5-5.4c.6-.6 1.1-1.3 1.5-2zm-5.2 5.1c.4-.2.8-.4 1.1-.7l8.6 8.3c.7.7 1.8.7 2.5 0 .3-.3.5-.7.5-1.2l.3-10h.2l.5 16.5c0 1 .8 1.7 1.8 1.7.4 0 .9-.2 1.2-.5l10.9-11c.8-.1 1.5-.3 2.2-.5l-15.4 15.7c-.3.3-.5.8-.5 1.3l.8 23.9c-.8-1.3-1.8-2.4-3.1-3.2l.9-27.4c0-.5-.2-1-.5-1.3zm-17.8 47.1c.5-1.8 1.7-3.3 3.3-4.2.5-.2.8-.7.9-1.2.5-2.4 2.6-4.1 5-4.1.7 0 1.4.1 2 .4.6.2 1.2.2 1.7-.2.8-.6 1.7-.9 2.7-.9 1.5 0 2.9.7 3.8 2 .4.6 1.1.8 1.7.7 2.2-.4 4.3.7 5.4 2.6.2.3.4.5.7.7 1.6.9 2.8 2.4 3.2 4.2zm52.9 0 .3-10.5c0-1-.7-1.8-1.7-1.8s-1.8.7-1.8 1.7l-.4 10.6h-13.2l-.9-26.9 15.6-15.8-.5 15.7c0 1 .7 1.8 1.7 1.8h.1c.9 0 1.7-.7 1.8-1.7l.5-16.6c0-.5-.2-1-.5-1.3l-15.6-15c.8-.4 1.5-.8 2.2-1.3l11 10.7c.7.7 1.8.7 2.5 0 .3-.3.5-.7.5-1.2l.4-13c.4 0 .7-.1 1.1-.1l.6 21.4c0 1 .8 1.7 1.8 1.7.4 0 .9-.2 1.2-.5l13.8-14c1-.1 2.1-.4 3-.7.3.1.5.2.8.3l-10.7 10.9-9.1 9.2c-.3.3-.5.8-.5 1.3l1.2 35h-5.2zm27.8 0c.5-1.8 1.7-3.3 3.3-4.2.5-.2.8-.7.9-1.2.5-2.4 2.6-4.1 5-4.1.7 0 1.4.1 2 .4.6.2 1.2.2 1.7-.2.8-.6 1.7-.9 2.7-.9 1.5 0 2.9.7 3.8 2 .4.6 1.1.8 1.7.7 2.2-.4 4.3.7 5.4 2.6.2.3.4.5.7.7 1.6.9 2.8 2.4 3.2 4.2zm-27.1-20.4-.1 3.6c0 .9-.8 1.7-1.7 1.7h-.1c-1 0-1.7-.8-1.7-1.8l.1-3.6c0-1 .8-1.7 1.8-1.7s1.7.9 1.7 1.8zm39.2-63.9c0-.8-.1-1.6-.4-2.4-.3-.9.2-1.9 1.1-2.2s1.9.2 2.2 1.1c1.7 5.4-.8 11.2-5.9 13.6-.9.4-1.9 0-2.3-.9s0-1.9.8-2.3c2.7-1.2 4.4-3.9 4.5-6.9z" fill="#180f0b"/></g></svg>